P3
# 8-bit ppm - RGB
25 25
255
184 176 167 184 176 167 184 176 167 184 176 167 184 176 167 184 176 167 184 176 167 184
176 167 184 176 167 184 176 167 184 176 167 183 175 165 192 185 177 200 194 188 199 193
187 199 193 187 199 193 187 199 193 187 199 193 187 199 193 187 199 193 187 199 193 187
199 193 187 199 193 187 199 193 187
184 176 167 184 176 167 184 176 167 184 176 167 184 176 167 184 176 167 184 176 167 184
176 167 184 176 167 184 176 167 184 176 167 183 175 165 192 185 177 200 194 188 199 193
187 199 193 187 199 193 187 199 193 187 199 193 187 199 193 187 199 193 187 199 193 187
199 193 187 199 193 187 199 193 187
184 176 167 184 176 167 184 176 167 184 176 167 184 176 167 184 176 167 184 176 167 184
176 167 184 176 167 184 176 167 184 176 167 183 175 165 192 185 177 200 194 188 199 193
187 199 193 187 199 193 187 199 193 187 199 193 187 199 193 187 199 193 187 199 193 187
199 193 187 199 193 187 199 193 187
184 176 167 184 176 167 184 176 167 184 176 167 184 176 167 184 176 167 184 176 167 184
176 167 184 176 167 184 176 167 184 176 167 183 175 165 192 185 177 200 194 188 199 193
187 199 193 187 199 193 187 199 193 187 199 193 187 199 193 187 199 193 187 199 193 187
199 193 187 199 193 187 199 193 187
184 176 167 184 176 167 184 176 167 184 176 167 184 176 167 184 176 167 184 176 167 184
176 167 184 176 167 184 176 167 184 176 167 183 175 165 192 185 177 200 194 188 199 193
187 199 193 187 199 193 187 199 193 187 199 193 187 199 193 187 199 193 187 199 193 187
199 193 187 199 193 187 199 193 187
184 176 167 184 176 167 184 176 167 184 176 167 184 176 167 184 176 167 184 176 167 184
176 167 184 176 167 184 176 167 184 176 167 183 175 165 192 185 177 200 194 188 199 193
187 199 193 187 199 193 187 199 193 187 199 193 187 199 193 187 199 193 187 199 193 187
199 193 187 199 193 187 199 193 187
184 176 167 184 176 167 184 176 167 184 176 167 184 176 167 184 176 167 184 176 167 184
176 167 184 176 167 184 176 167 184 176 167 183 175 165 192 185 177 200 194 188 199 193
187 199 193 187 199 193 187 199 193 187 199 193 187 199 193 187 199 193 187 199 193 187
199 193 187 199 193 187 199 193 187
184 176 167 184 176 167 184 176 167 184 176 167 184 176 167 184 176 167 184 176 167 184
176 167 184 176 167 184 176 167 184 176 167 183 175 165 192 185 177 200 194 188 199 193
187 199 193 187 199 193 187 199 193 187 199 193 187 199 193 187 199 193 187 199 193 187
199 193 187 199 193 187 199 193 187
184 176 167 184 176 167 184 176 167 184 176 167 184 176 167 184 176 167 184 176 167 184
176 167 184 176 167 184 176 167 184 176 167 183 175 165 192 185 177 200 194 188 199 193
187 199 193 187 199 193 187 199 193 187 199 193 187 199 193 187 199 193 187 199 193 187
199 193 187 199 193 187 199 193 187
184 176 167 184 176 167 184 176 167 184 176 167 184 176 167 184 176 167 184 176 167 184
176 167 184 176 167 184 176 167 184 176 167 183 175 165 192 185 177 200 194 188 199 193
187 199 193 187 199 193 187 199 193 187 199 193 187 199 193 187 199 193 187 199 193 187
199 193 187 199 193 187 199 193 187
183 175 166 183 175 166 183 175 166 183 175 166 183 175 166 183 175 166 183 175 166 183
175 166 183 175 166 183 175 166 184 175 166 182 174 164 191 184 176 199 193 187 197 191
185 198 192 186 198 192 186 198 192 186 198 192 186 198 192 186 198 192 186 198 192 186
198 192 186 198 192 186 198 192 186
187 180 171 187 180 171 187 180 171 187 180 171 187 180 171 187 180 171 187 180 171 187
180 171 187 180 171 187 180 171 187 180 171 185 178 169 196 190 182 206 200 194 204 199
192 205 199 193 205 199 193 205 199 193 205 199 193 205 199 193 205 199 193 205 199 193
205 199 193 205 199 193 205 199 193
163 146 136 163 146 136 163 146 136 163 146 136 163 146 136 163 146 136 163 146 136 163
146 136 163 146 136 163 146 136 163 146 136 164 146 135 158 146 138 152 146 141 153 146
141 153 146 141 153 146 141 153 146 141 153 146 141 153 146 141 153 146 141 153 146 141
153 146 141 153 146 141 153 146 141
134  98  81 134  98  81 134  98  81 134  98  81 134  98  81 134  98  81 134  98  81 134
 98  81 134  98  81 134  98  81 133  97  81 138 101  84 101  71  57  22   0   0  47  17
  0  43  11   0  43  11   0  43  11   0  43  11   0  43  11   0  43  11   0  43  11   0
 43  11   0  43  11   0  43  11   0
139 108  93 139 108  93 139 108  93 139 108  93 139 108  93 139 108  93 139 108  93 139
108  93 139 108  93 139 108  93 138 107  93 142 110  95 113  89  78  68  58  53  78  64
 58  76  63  57  76  63  57  76  63  57  76  63  57  76  63  57  76  63  57  76  63  57
 76  63  57  76  63  57  76  63  57
138 106  91 138 106  91 138 106  91 138 106  91 138 106  91 138 106  91 138 106  91 138
106  91 138 106  91 138 106  91 137 105  90 142 109  93 111  86  74  62  51  46  73  58
 52  71  57  51  71  57  51  71  57  51  71  57  51  71  57  51  71  57  51  71  57  51
 71  57  51  71  57  51  71  57  51
138 106  91 138 106  91 138 106  91 138 106  91 138 106  91 138 106  91 138 106  91 138
106  91 138 106  91 138 106  91 137 105  90 142 109  93 111  86  74  62  51  46  73  58
 52  71  57  51  71  57  51  71  57  51  71  57  51  71  57  51  71  57  51  71  57  51
 71  57  51  71  57  51  71  57  51
138 106  91 138 106  91 138 106  91 138 106  91 138 106  91 138 106  91 138 106  91 138
106  91 138 106  91 138 106  91 137 105  90 142 109  93 111  86  74  62  51  46  73  58
 52  71  57  51  71  57  51  71  57  51  71  57  51  71  57  51  71  57  51  71  57  51
 71  57  51  71  57  51  71  57  51
138 106  91 138 106  91 138 106  91 138 106  91 138 106  91 138 106  91 138 106  91 138
106  91 138 106  91 138 106  91 137 105  90 142 109  93 111  86  74  62  51  46  73  58
 52  71  57  51  71  57  51  71  57  51  71  57  51  71  57  51  71  57  51  71  57  51
 71  57  51  71  57  51  71  57  51
138 106  91 138 106  91 138 106  91 138 106  91 138 106  91 138 106  91 138 106  91 138
106  91 138 106  91 138 106  91 137 105  90 142 109  93 111  86  74  62  51  46  73  58
 52  71  57  51  71  57  51  71  57  51  71  57  51  71  57  51  71  57  51  71  57  51
 71  57  51  71  57  51  71  57  51
138 106  91 138 106  91 138 106  91 138 106  91 138 106  91 138 106  91 138 106  91 138
106  91 138 106  91 138 106  91 137 105  90 142 109  93 111  86  74  62  51  46  73  58
 52  71  57  51  71  57  51  71  57  51  71  57  51  71  57  51  71  57  51  71  57  51
 71  57  51  71  57  51  71  57  51
138 106  91 138 106  91 138 106  91 138 106  91 138 106  91 138 106  91 138 106  91 138
106  91 138 106  91 138 106  91 137 105  90 142 109  93 111  86  74  62  51  46  73  58
 52  71  57  51  71  57  51  71  57  51  71  57  51  71  57  51  71  57  51  71  57  51
 71  57  51  71  57  51  71  57  51
138 106  91 138 106  91 138 106  91 138 106  91 138 106  91 138 106  91 138 106  91 138
106  91 138 106  91 138 106  91 137 105  90 142 109  93 111  86  74  62  51  46  73  58
 52  71  57  51  71  57  51  71  57  51  71  57  51  71  57  51  71  57  51  71  57  51
 71  57  51  71  57  51  71  57  51
138 106  91 138 106  91 138 106  91 138 106  91 138 106  91 138 106  91 138 106  91 138
106  91 138 106  91 138 106  91 137 105  90 142 109  93 111  86  74  62  51  46  73  58
 52  71  57  51  71  57  51  71  57  51  71  57  51  71  57  51  71  57  51  71  57  51
 71  57  51  71  57  51  71  57  51
138 106  91 138 106  91 138 106  91 138 106  91 138 106  91 138 106  91 138 106  91 138
106  91 138 106  91 138 106  91 137 105  90 142 109  93 111  86  74  62  51  46  73  58
 52  71  57  51  71  57  51  71  57  51  71  57  51  71  57  51  71  57  51  71  57  51
 71  57  51  71  57  51  71  57  51
